<mxfile host="Electron" modified="2024-05-29T11:03:25.026Z" agent="Mozilla/5.0 (Windows NT 10.0; Win64; x64) AppleWebKit/537.36 (KHTML, like Gecko) draw.io/24.4.0 Chrome/120.0.6099.109 Electron/28.1.0 Safari/537.36" etag="XzGesO_HGdrvrbUI0sY9" version="24.4.0" type="device">
  <diagram name="Página-1" id="GR3zeygupvoxrYtm1hRJ">
    <mxGraphModel dx="1765" dy="622" grid="1" gridSize="10" guides="1" tooltips="1" connect="1" arrows="1" fold="1" page="0" pageScale="1" pageWidth="827" pageHeight="1169" math="0" shadow="0">
      <root>
        <mxCell id="0" />
        <mxCell id="1" parent="0" />
        <mxCell id="Gp71nWd18dND1Q83QWXw-1" value="«subsystem»&lt;br style=&quot;font-size: 14px;&quot;&gt;&lt;b style=&quot;font-size: 14px;&quot;&gt;Memory&lt;/b&gt;" style="html=1;dropTarget=0;labelPosition=center;verticalLabelPosition=middle;align=center;verticalAlign=top;fontSize=14;fillColor=#E6E6E6;" parent="1" vertex="1">
          <mxGeometry x="-420" y="540" width="200" height="280" as="geometry" />
        </mxCell>
        <mxCell id="Gp71nWd18dND1Q83QWXw-2" value="" style="shape=module;jettyWidth=8;jettyHeight=4;fontSize=14;html=1;fillColor=none;" parent="Gp71nWd18dND1Q83QWXw-1" vertex="1">
          <mxGeometry x="1" width="20" height="20" relative="1" as="geometry">
            <mxPoint x="-27" y="7" as="offset" />
          </mxGeometry>
        </mxCell>
        <mxCell id="pKsOjxFZ4Rrx8PbKON6V-6" value="" style="rounded=0;orthogonalLoop=1;jettySize=auto;html=1;endArrow=oval;endFill=0;sketch=0;sourcePerimeterSpacing=0;targetPerimeterSpacing=0;endSize=10;exitX=0;exitY=0.5;exitDx=0;exitDy=0;edgeStyle=orthogonalEdgeStyle;" parent="1" source="Gp71nWd18dND1Q83QWXw-22" target="pKsOjxFZ4Rrx8PbKON6V-7" edge="1">
          <mxGeometry relative="1" as="geometry">
            <mxPoint x="-340" y="745" as="sourcePoint" />
            <Array as="points">
              <mxPoint x="-480" y="950" />
              <mxPoint x="-480" y="660" />
            </Array>
          </mxGeometry>
        </mxCell>
        <mxCell id="Gp71nWd18dND1Q83QWXw-7" value="«subsystem»&lt;br style=&quot;font-size: 14px;&quot;&gt;&lt;b style=&quot;font-size: 14px;&quot;&gt;CPU&lt;/b&gt;" style="html=1;dropTarget=0;labelPosition=center;verticalLabelPosition=middle;align=center;verticalAlign=top;fontSize=14;fillColor=#E6E6E6;" parent="1" vertex="1">
          <mxGeometry x="-70" y="380" width="240" height="490" as="geometry" />
        </mxCell>
        <mxCell id="Gp71nWd18dND1Q83QWXw-8" value="" style="shape=module;jettyWidth=8;jettyHeight=4;fontSize=14;html=1;fillColor=none;" parent="Gp71nWd18dND1Q83QWXw-7" vertex="1">
          <mxGeometry x="1" width="20" height="20" relative="1" as="geometry">
            <mxPoint x="-27" y="7" as="offset" />
          </mxGeometry>
        </mxCell>
        <mxCell id="eakKJGeporBGRb9YwunK-65" value="" style="endArrow=open;html=1;rounded=0;exitX=0;exitY=0.5;exitDx=0;exitDy=0;dashed=1;edgeStyle=orthogonalEdgeStyle;endFill=0;entryX=1;entryY=0.5;entryDx=0;entryDy=0;" parent="1" edge="1">
          <mxGeometry width="50" height="50" relative="1" as="geometry">
            <mxPoint x="-40" y="645" as="sourcePoint" />
            <mxPoint x="-240" y="645" as="targetPoint" />
            <Array as="points">
              <mxPoint x="-180" y="645" />
              <mxPoint x="-180" y="645" />
            </Array>
          </mxGeometry>
        </mxCell>
        <mxCell id="k6IjrDj9pO7xthxX3fzf-53" value="" style="rounded=0;orthogonalLoop=1;jettySize=auto;html=1;endArrow=halfCircle;endFill=0;endSize=6;strokeWidth=1;sketch=0;fontSize=12;exitX=0;exitY=0.25;exitDx=0;exitDy=0;edgeStyle=orthogonalEdgeStyle;" parent="1" source="Gp71nWd18dND1Q83QWXw-22" target="k6IjrDj9pO7xthxX3fzf-24" edge="1">
          <mxGeometry relative="1" as="geometry">
            <mxPoint x="-285" y="665" as="sourcePoint" />
            <Array as="points">
              <mxPoint x="-220" y="925" />
            </Array>
          </mxGeometry>
        </mxCell>
        <mxCell id="eakKJGeporBGRb9YwunK-41" value="state" style="edgeLabel;html=1;align=center;verticalAlign=top;resizable=0;points=[];spacing=4;" parent="k6IjrDj9pO7xthxX3fzf-53" vertex="1" connectable="0">
          <mxGeometry x="-0.1365" y="1" relative="1" as="geometry">
            <mxPoint x="-23" y="-1" as="offset" />
          </mxGeometry>
        </mxCell>
        <mxCell id="k6IjrDj9pO7xthxX3fzf-15" value="" style="rounded=0;orthogonalLoop=1;jettySize=auto;html=1;endArrow=halfCircle;endFill=0;endSize=6;strokeWidth=1;sketch=0;fontSize=12;curved=1;exitX=0.25;exitY=0;exitDx=0;exitDy=0;entryX=0.641;entryY=0.796;entryDx=0;entryDy=0;entryPerimeter=0;" parent="1" source="Gp71nWd18dND1Q83QWXw-9" target="k6IjrDj9pO7xthxX3fzf-16" edge="1">
          <mxGeometry relative="1" as="geometry">
            <mxPoint x="135" y="835" as="sourcePoint" />
          </mxGeometry>
        </mxCell>
        <mxCell id="eakKJGeporBGRb9YwunK-29" value="word" style="edgeLabel;html=1;align=center;verticalAlign=top;resizable=0;points=[];spacing=5;labelBackgroundColor=#E6E6E6;" parent="k6IjrDj9pO7xthxX3fzf-15" vertex="1" connectable="0">
          <mxGeometry x="-0.1996" y="-1" relative="1" as="geometry">
            <mxPoint x="-1" y="-24" as="offset" />
          </mxGeometry>
        </mxCell>
        <mxCell id="Gp71nWd18dND1Q83QWXw-3" value="«component»&lt;br style=&quot;font-size: 14px;&quot;&gt;&lt;b style=&quot;font-size: 14px;&quot;&gt;Text Memory&lt;/b&gt;" style="html=1;dropTarget=0;fontSize=14;" parent="1" vertex="1">
          <mxGeometry x="-400" y="720" width="160" height="80" as="geometry" />
        </mxCell>
        <mxCell id="Gp71nWd18dND1Q83QWXw-4" value="" style="shape=module;jettyWidth=8;jettyHeight=4;fontSize=14;html=1;" parent="Gp71nWd18dND1Q83QWXw-3" vertex="1">
          <mxGeometry x="1" width="20" height="20" relative="1" as="geometry">
            <mxPoint x="-27" y="7" as="offset" />
          </mxGeometry>
        </mxCell>
        <mxCell id="Gp71nWd18dND1Q83QWXw-5" value="«component»&lt;br style=&quot;font-size: 14px;&quot;&gt;&lt;b style=&quot;font-size: 14px;&quot;&gt;Data Memory&lt;/b&gt;" style="html=1;dropTarget=0;fontSize=14;" parent="1" vertex="1">
          <mxGeometry x="-400" y="600" width="160" height="80" as="geometry" />
        </mxCell>
        <mxCell id="Gp71nWd18dND1Q83QWXw-6" value="" style="shape=module;jettyWidth=8;jettyHeight=4;fontSize=14;html=1;" parent="Gp71nWd18dND1Q83QWXw-5" vertex="1">
          <mxGeometry x="1" width="20" height="20" relative="1" as="geometry">
            <mxPoint x="-27" y="7" as="offset" />
          </mxGeometry>
        </mxCell>
        <mxCell id="Gp71nWd18dND1Q83QWXw-9" value="«component»&lt;br style=&quot;font-size: 14px;&quot;&gt;&lt;b style=&quot;font-size: 14px;&quot;&gt;ALU&lt;/b&gt;" style="html=1;dropTarget=0;fontSize=14;" parent="1" vertex="1">
          <mxGeometry x="-40" y="600" width="160" height="80" as="geometry" />
        </mxCell>
        <mxCell id="Gp71nWd18dND1Q83QWXw-10" value="" style="shape=module;jettyWidth=8;jettyHeight=4;fontSize=14;html=1;" parent="Gp71nWd18dND1Q83QWXw-9" vertex="1">
          <mxGeometry x="1" width="20" height="20" relative="1" as="geometry">
            <mxPoint x="-27" y="7" as="offset" />
          </mxGeometry>
        </mxCell>
        <mxCell id="Gp71nWd18dND1Q83QWXw-11" value="«component»&lt;br style=&quot;font-size: 14px;&quot;&gt;&lt;b style=&quot;font-size: 14px;&quot;&gt;Control Unit&lt;/b&gt;" style="html=1;dropTarget=0;fontSize=14;" parent="1" vertex="1">
          <mxGeometry x="-40" y="760" width="160" height="80" as="geometry" />
        </mxCell>
        <mxCell id="Gp71nWd18dND1Q83QWXw-12" value="" style="shape=module;jettyWidth=8;jettyHeight=4;fontSize=14;html=1;" parent="Gp71nWd18dND1Q83QWXw-11" vertex="1">
          <mxGeometry x="1" width="20" height="20" relative="1" as="geometry">
            <mxPoint x="-27" y="7" as="offset" />
          </mxGeometry>
        </mxCell>
        <mxCell id="Gp71nWd18dND1Q83QWXw-13" value="«component»&lt;br style=&quot;font-size: 14px;&quot;&gt;&lt;b style=&quot;font-size: 14px;&quot;&gt;Register File&lt;/b&gt;" style="html=1;dropTarget=0;fontSize=14;" parent="1" vertex="1">
          <mxGeometry x="-40" y="440" width="160" height="80" as="geometry" />
        </mxCell>
        <mxCell id="Gp71nWd18dND1Q83QWXw-14" value="" style="shape=module;jettyWidth=8;jettyHeight=4;fontSize=14;html=1;" parent="Gp71nWd18dND1Q83QWXw-13" vertex="1">
          <mxGeometry x="1" width="20" height="20" relative="1" as="geometry">
            <mxPoint x="-27" y="7" as="offset" />
          </mxGeometry>
        </mxCell>
        <mxCell id="Gp71nWd18dND1Q83QWXw-20" value="" style="rounded=0;orthogonalLoop=1;jettySize=auto;html=1;endArrow=oval;endFill=0;sketch=0;sourcePerimeterSpacing=0;targetPerimeterSpacing=0;endSize=10;fontSize=14;entryX=0.765;entryY=0.908;entryDx=0;entryDy=0;entryPerimeter=0;exitX=1;exitY=0.75;exitDx=0;exitDy=0;" parent="1" source="Gp71nWd18dND1Q83QWXw-3" target="k6IjrDj9pO7xthxX3fzf-28" edge="1">
          <mxGeometry relative="1" as="geometry">
            <mxPoint x="-240" y="780" as="sourcePoint" />
            <mxPoint x="-160" y="750" as="targetPoint" />
            <Array as="points" />
          </mxGeometry>
        </mxCell>
        <mxCell id="Gp71nWd18dND1Q83QWXw-27" value="instruction" style="edgeLabel;html=1;align=center;verticalAlign=top;resizable=0;points=[];spacing=4;" parent="Gp71nWd18dND1Q83QWXw-20" vertex="1" connectable="0">
          <mxGeometry x="0.6058" relative="1" as="geometry">
            <mxPoint x="27" as="offset" />
          </mxGeometry>
        </mxCell>
        <mxCell id="Gp71nWd18dND1Q83QWXw-21" value="" style="ellipse;whiteSpace=wrap;html=1;align=center;aspect=fixed;fillColor=none;strokeColor=none;resizable=0;perimeter=centerPerimeter;rotatable=0;allowArrows=0;points=[];outlineConnect=1;fontSize=14;" parent="1" vertex="1">
          <mxGeometry x="-155" y="870" width="10" height="10" as="geometry" />
        </mxCell>
        <mxCell id="Gp71nWd18dND1Q83QWXw-22" value="«component»&lt;br style=&quot;font-size: 14px;&quot;&gt;&lt;b style=&quot;font-size: 14px;&quot;&gt;CLI&lt;/b&gt;" style="html=1;dropTarget=0;fontSize=14;" parent="1" vertex="1">
          <mxGeometry x="-220" y="910" width="160" height="80" as="geometry" />
        </mxCell>
        <mxCell id="Gp71nWd18dND1Q83QWXw-23" value="" style="shape=module;jettyWidth=8;jettyHeight=4;fontSize=14;html=1;" parent="Gp71nWd18dND1Q83QWXw-22" vertex="1">
          <mxGeometry x="1" width="20" height="20" relative="1" as="geometry">
            <mxPoint x="-27" y="7" as="offset" />
          </mxGeometry>
        </mxCell>
        <mxCell id="Gp71nWd18dND1Q83QWXw-24" value="«component»&lt;br style=&quot;font-size: 14px;&quot;&gt;&lt;b style=&quot;font-size: 14px;&quot;&gt;Compiler&lt;/b&gt;" style="html=1;dropTarget=0;fontSize=14;" parent="1" vertex="1">
          <mxGeometry x="-400" y="400" width="160" height="80" as="geometry" />
        </mxCell>
        <mxCell id="Gp71nWd18dND1Q83QWXw-25" value="" style="shape=module;jettyWidth=8;jettyHeight=4;fontSize=14;html=1;" parent="Gp71nWd18dND1Q83QWXw-24" vertex="1">
          <mxGeometry x="1" width="20" height="20" relative="1" as="geometry">
            <mxPoint x="-27" y="7" as="offset" />
          </mxGeometry>
        </mxCell>
        <mxCell id="Gp71nWd18dND1Q83QWXw-26" value="" style="rounded=0;orthogonalLoop=1;jettySize=auto;html=1;endArrow=oval;endFill=0;sketch=0;sourcePerimeterSpacing=0;targetPerimeterSpacing=0;endSize=10;exitX=0;exitY=0.75;exitDx=0;exitDy=0;fontSize=14;entryX=0.264;entryY=0.174;entryDx=0;entryDy=0;entryPerimeter=0;edgeStyle=orthogonalEdgeStyle;" parent="1" source="Gp71nWd18dND1Q83QWXw-3" target="k6IjrDj9pO7xthxX3fzf-24" edge="1">
          <mxGeometry relative="1" as="geometry">
            <mxPoint x="-250" y="740" as="sourcePoint" />
            <mxPoint x="-300" y="860" as="targetPoint" />
            <Array as="points">
              <mxPoint x="-450" y="780" />
              <mxPoint x="-450" y="925" />
            </Array>
          </mxGeometry>
        </mxCell>
        <mxCell id="Gp71nWd18dND1Q83QWXw-34" value="" style="ellipse;whiteSpace=wrap;html=1;align=center;aspect=fixed;fillColor=none;strokeColor=none;resizable=0;perimeter=centerPerimeter;rotatable=0;allowArrows=0;points=[];outlineConnect=1;" parent="1" vertex="1">
          <mxGeometry x="-100" y="680" width="10" height="10" as="geometry" />
        </mxCell>
        <mxCell id="Gp71nWd18dND1Q83QWXw-38" value="" style="ellipse;whiteSpace=wrap;html=1;align=center;aspect=fixed;fillColor=none;strokeColor=none;resizable=0;perimeter=centerPerimeter;rotatable=0;allowArrows=0;points=[];outlineConnect=1;" parent="1" vertex="1">
          <mxGeometry x="-310" y="810" width="10" height="10" as="geometry" />
        </mxCell>
        <mxCell id="k6IjrDj9pO7xthxX3fzf-1" value="" style="rounded=0;orthogonalLoop=1;jettySize=auto;html=1;endArrow=oval;endFill=0;sketch=0;sourcePerimeterSpacing=0;targetPerimeterSpacing=0;endSize=10;exitX=0.25;exitY=1;exitDx=0;exitDy=0;fontSize=14;" parent="1" source="Gp71nWd18dND1Q83QWXw-13" target="k6IjrDj9pO7xthxX3fzf-16" edge="1">
          <mxGeometry relative="1" as="geometry">
            <mxPoint x="130" y="860" as="sourcePoint" />
            <mxPoint x="220" y="860" as="targetPoint" />
            <Array as="points" />
          </mxGeometry>
        </mxCell>
        <mxCell id="k6IjrDj9pO7xthxX3fzf-8" value="" style="ellipse;whiteSpace=wrap;html=1;align=center;aspect=fixed;fillColor=none;strokeColor=none;resizable=0;perimeter=centerPerimeter;rotatable=0;allowArrows=0;points=[];outlineConnect=1;" parent="1" vertex="1">
          <mxGeometry x="70" y="780" width="10" height="10" as="geometry" />
        </mxCell>
        <mxCell id="k6IjrDj9pO7xthxX3fzf-10" value="" style="ellipse;whiteSpace=wrap;html=1;align=center;aspect=fixed;fillColor=none;strokeColor=none;resizable=0;perimeter=centerPerimeter;rotatable=0;allowArrows=0;points=[];outlineConnect=1;" parent="1" vertex="1">
          <mxGeometry x="70" y="830" width="10" height="10" as="geometry" />
        </mxCell>
        <mxCell id="k6IjrDj9pO7xthxX3fzf-16" value="" style="ellipse;whiteSpace=wrap;html=1;align=center;aspect=fixed;fillColor=default;strokeColor=default;resizable=0;perimeter=centerPerimeter;rotatable=0;allowArrows=0;points=[];outlineConnect=1;" parent="1" vertex="1">
          <mxGeometry x="-5" y="555" width="10" height="10" as="geometry" />
        </mxCell>
        <mxCell id="k6IjrDj9pO7xthxX3fzf-20" value="" style="ellipse;whiteSpace=wrap;html=1;align=center;aspect=fixed;fillColor=none;strokeColor=none;resizable=0;perimeter=centerPerimeter;rotatable=0;allowArrows=0;points=[];outlineConnect=1;" parent="1" vertex="1">
          <mxGeometry x="-140" y="615" width="10" height="10" as="geometry" />
        </mxCell>
        <mxCell id="k6IjrDj9pO7xthxX3fzf-24" value="" style="ellipse;whiteSpace=wrap;html=1;align=center;aspect=fixed;fillColor=none;strokeColor=none;resizable=0;perimeter=centerPerimeter;rotatable=0;allowArrows=0;points=[];outlineConnect=1;" parent="1" vertex="1">
          <mxGeometry x="-260" y="920" width="10" height="10" as="geometry" />
        </mxCell>
        <mxCell id="k6IjrDj9pO7xthxX3fzf-27" value="" style="rounded=0;orthogonalLoop=1;jettySize=auto;html=1;endArrow=halfCircle;endFill=0;endSize=6;strokeWidth=1;sketch=0;fontSize=12;curved=1;exitX=0;exitY=0.25;exitDx=0;exitDy=0;" parent="1" source="Gp71nWd18dND1Q83QWXw-11" target="k6IjrDj9pO7xthxX3fzf-28" edge="1">
          <mxGeometry relative="1" as="geometry">
            <mxPoint x="-95" y="735" as="sourcePoint" />
          </mxGeometry>
        </mxCell>
        <mxCell id="k6IjrDj9pO7xthxX3fzf-28" value="" style="ellipse;whiteSpace=wrap;html=1;align=center;aspect=fixed;fillColor=none;strokeColor=none;resizable=0;perimeter=centerPerimeter;rotatable=0;allowArrows=0;points=[];outlineConnect=1;" parent="1" vertex="1">
          <mxGeometry x="-110" y="775" width="10" height="10" as="geometry" />
        </mxCell>
        <mxCell id="k6IjrDj9pO7xthxX3fzf-30" value="" style="ellipse;whiteSpace=wrap;html=1;align=center;aspect=fixed;fillColor=none;strokeColor=none;resizable=0;perimeter=centerPerimeter;rotatable=0;allowArrows=0;points=[];outlineConnect=1;" parent="1" vertex="1">
          <mxGeometry x="-120" y="655" width="10" height="10" as="geometry" />
        </mxCell>
        <mxCell id="k6IjrDj9pO7xthxX3fzf-37" value="" style="rounded=0;orthogonalLoop=1;jettySize=auto;html=1;endArrow=halfCircle;endFill=0;endSize=6;strokeWidth=1;sketch=0;exitX=0.5;exitY=1;exitDx=0;exitDy=0;" parent="1" source="Gp71nWd18dND1Q83QWXw-11" target="k6IjrDj9pO7xthxX3fzf-39" edge="1">
          <mxGeometry relative="1" as="geometry">
            <mxPoint x="90" y="980" as="sourcePoint" />
            <Array as="points" />
          </mxGeometry>
        </mxCell>
        <mxCell id="eakKJGeporBGRb9YwunK-40" value="signal" style="edgeLabel;html=1;align=center;verticalAlign=bottom;resizable=0;points=[];spacing=10;" parent="k6IjrDj9pO7xthxX3fzf-37" vertex="1" connectable="0">
          <mxGeometry x="0.3256" y="-1" relative="1" as="geometry">
            <mxPoint x="1" y="22" as="offset" />
          </mxGeometry>
        </mxCell>
        <mxCell id="k6IjrDj9pO7xthxX3fzf-38" value="" style="rounded=0;orthogonalLoop=1;jettySize=auto;html=1;endArrow=oval;endFill=0;sketch=0;sourcePerimeterSpacing=0;targetPerimeterSpacing=0;endSize=10;exitX=1;exitY=0.25;exitDx=0;exitDy=0;" parent="1" source="Gp71nWd18dND1Q83QWXw-22" target="k6IjrDj9pO7xthxX3fzf-39" edge="1">
          <mxGeometry relative="1" as="geometry">
            <mxPoint x="-60" y="845" as="sourcePoint" />
            <Array as="points">
              <mxPoint x="40" y="930" />
            </Array>
          </mxGeometry>
        </mxCell>
        <mxCell id="k6IjrDj9pO7xthxX3fzf-39" value="" style="ellipse;whiteSpace=wrap;html=1;align=center;aspect=fixed;fillColor=none;strokeColor=none;resizable=0;perimeter=centerPerimeter;rotatable=0;allowArrows=0;points=[];outlineConnect=1;" parent="1" vertex="1">
          <mxGeometry x="35" y="900" width="10" height="10" as="geometry" />
        </mxCell>
        <mxCell id="k6IjrDj9pO7xthxX3fzf-41" value="" style="rounded=0;orthogonalLoop=1;jettySize=auto;html=1;endArrow=halfCircle;endFill=0;endSize=6;strokeWidth=1;sketch=0;edgeStyle=orthogonalEdgeStyle;exitX=1;exitY=0.75;exitDx=0;exitDy=0;" parent="1" source="Gp71nWd18dND1Q83QWXw-22" target="k6IjrDj9pO7xthxX3fzf-43" edge="1">
          <mxGeometry relative="1" as="geometry">
            <mxPoint x="-10" y="970" as="sourcePoint" />
            <Array as="points">
              <mxPoint x="-50" y="970" />
              <mxPoint x="-50" y="970" />
            </Array>
          </mxGeometry>
        </mxCell>
        <mxCell id="eakKJGeporBGRb9YwunK-38" value="state" style="edgeLabel;html=1;align=center;verticalAlign=top;resizable=0;points=[];spacing=4;" parent="k6IjrDj9pO7xthxX3fzf-41" vertex="1" connectable="0">
          <mxGeometry x="-0.1061" y="1" relative="1" as="geometry">
            <mxPoint x="20" y="1" as="offset" />
          </mxGeometry>
        </mxCell>
        <mxCell id="k6IjrDj9pO7xthxX3fzf-42" value="" style="rounded=0;orthogonalLoop=1;jettySize=auto;html=1;endArrow=oval;endFill=0;sketch=0;sourcePerimeterSpacing=0;targetPerimeterSpacing=0;endSize=10;exitX=1;exitY=0.25;exitDx=0;exitDy=0;edgeStyle=orthogonalEdgeStyle;" parent="1" source="Gp71nWd18dND1Q83QWXw-13" target="k6IjrDj9pO7xthxX3fzf-43" edge="1">
          <mxGeometry relative="1" as="geometry">
            <mxPoint x="-60" y="585" as="sourcePoint" />
            <Array as="points">
              <mxPoint x="240" y="460" />
              <mxPoint x="240" y="970" />
            </Array>
          </mxGeometry>
        </mxCell>
        <mxCell id="k6IjrDj9pO7xthxX3fzf-43" value="" style="ellipse;whiteSpace=wrap;html=1;align=center;aspect=fixed;fillColor=none;strokeColor=none;resizable=0;perimeter=centerPerimeter;rotatable=0;allowArrows=0;points=[];outlineConnect=1;" parent="1" vertex="1">
          <mxGeometry x="-30" y="965" width="10" height="10" as="geometry" />
        </mxCell>
        <mxCell id="k6IjrDj9pO7xthxX3fzf-45" value="" style="rounded=0;orthogonalLoop=1;jettySize=auto;html=1;endArrow=oval;endFill=0;sketch=0;sourcePerimeterSpacing=0;targetPerimeterSpacing=0;endSize=10;exitX=0;exitY=0.25;exitDx=0;exitDy=0;fontSize=14;edgeStyle=orthogonalEdgeStyle;" parent="1" source="Gp71nWd18dND1Q83QWXw-5" target="k6IjrDj9pO7xthxX3fzf-52" edge="1">
          <mxGeometry relative="1" as="geometry">
            <mxPoint x="-405" y="625" as="sourcePoint" />
            <mxPoint x="-460" y="620" as="targetPoint" />
            <Array as="points">
              <mxPoint x="-500" y="620" />
              <mxPoint x="-500" y="970" />
            </Array>
          </mxGeometry>
        </mxCell>
        <mxCell id="k6IjrDj9pO7xthxX3fzf-48" value="" style="ellipse;whiteSpace=wrap;html=1;align=center;aspect=fixed;fillColor=none;strokeColor=none;resizable=0;perimeter=centerPerimeter;rotatable=0;allowArrows=0;points=[];outlineConnect=1;" parent="1" vertex="1">
          <mxGeometry x="-260" y="610" width="10" height="10" as="geometry" />
        </mxCell>
        <mxCell id="k6IjrDj9pO7xthxX3fzf-51" value="" style="rounded=0;orthogonalLoop=1;jettySize=auto;html=1;endArrow=halfCircle;endFill=0;endSize=6;strokeWidth=1;sketch=0;fontSize=12;exitX=0;exitY=0.75;exitDx=0;exitDy=0;edgeStyle=orthogonalEdgeStyle;" parent="1" source="Gp71nWd18dND1Q83QWXw-22" target="k6IjrDj9pO7xthxX3fzf-52" edge="1">
          <mxGeometry relative="1" as="geometry">
            <mxPoint x="-215" y="655" as="sourcePoint" />
            <Array as="points">
              <mxPoint x="-250" y="970" />
              <mxPoint x="-250" y="970" />
            </Array>
          </mxGeometry>
        </mxCell>
        <mxCell id="eakKJGeporBGRb9YwunK-42" value="state" style="edgeLabel;html=1;align=center;verticalAlign=top;resizable=0;points=[];spacing=4;" parent="k6IjrDj9pO7xthxX3fzf-51" vertex="1" connectable="0">
          <mxGeometry x="0.1269" y="1" relative="1" as="geometry">
            <mxPoint x="-15" y="-1" as="offset" />
          </mxGeometry>
        </mxCell>
        <mxCell id="k6IjrDj9pO7xthxX3fzf-52" value="" style="ellipse;whiteSpace=wrap;html=1;align=center;aspect=fixed;fillColor=none;strokeColor=none;resizable=0;perimeter=centerPerimeter;rotatable=0;allowArrows=0;points=[];outlineConnect=1;" parent="1" vertex="1">
          <mxGeometry x="-260" y="965" width="10" height="10" as="geometry" />
        </mxCell>
        <mxCell id="k6IjrDj9pO7xthxX3fzf-54" value="" style="ellipse;whiteSpace=wrap;html=1;align=center;aspect=fixed;fillColor=none;strokeColor=none;resizable=0;perimeter=centerPerimeter;rotatable=0;allowArrows=0;points=[];outlineConnect=1;" parent="1" vertex="1">
          <mxGeometry x="-475" y="735" width="10" height="10" as="geometry" />
        </mxCell>
        <mxCell id="eakKJGeporBGRb9YwunK-1" value="" style="rounded=0;orthogonalLoop=1;jettySize=auto;html=1;endArrow=halfCircle;endFill=0;endSize=6;strokeWidth=1;sketch=0;fontSize=12;curved=1;exitX=1;exitY=0.25;exitDx=0;exitDy=0;" parent="1" source="Gp71nWd18dND1Q83QWXw-5" edge="1">
          <mxGeometry relative="1" as="geometry">
            <mxPoint x="-145" y="635" as="sourcePoint" />
            <mxPoint x="-190" y="620" as="targetPoint" />
          </mxGeometry>
        </mxCell>
        <mxCell id="eakKJGeporBGRb9YwunK-43" value="word" style="edgeLabel;html=1;align=center;verticalAlign=top;resizable=0;points=[];spacing=4;" parent="eakKJGeporBGRb9YwunK-1" vertex="1" connectable="0">
          <mxGeometry x="0.2865" y="1" relative="1" as="geometry">
            <mxPoint x="18" y="1" as="offset" />
          </mxGeometry>
        </mxCell>
        <mxCell id="eakKJGeporBGRb9YwunK-5" value="" style="rounded=0;orthogonalLoop=1;jettySize=auto;html=1;endArrow=oval;endFill=0;sketch=0;sourcePerimeterSpacing=0;targetPerimeterSpacing=0;endSize=10;fontSize=14;exitX=0;exitY=0.25;exitDx=0;exitDy=0;" parent="1" source="Gp71nWd18dND1Q83QWXw-9" edge="1">
          <mxGeometry relative="1" as="geometry">
            <mxPoint x="-190" y="580" as="sourcePoint" />
            <mxPoint x="-190" y="620" as="targetPoint" />
            <Array as="points" />
          </mxGeometry>
        </mxCell>
        <mxCell id="eakKJGeporBGRb9YwunK-2" value="" style="ellipse;whiteSpace=wrap;html=1;align=center;aspect=fixed;fillColor=none;strokeColor=none;resizable=0;perimeter=centerPerimeter;rotatable=0;allowArrows=0;points=[];outlineConnect=1;" parent="1" vertex="1">
          <mxGeometry x="-155" y="615" width="10" height="10" as="geometry" />
        </mxCell>
        <mxCell id="eakKJGeporBGRb9YwunK-9" value="" style="rounded=0;orthogonalLoop=1;jettySize=auto;html=1;endArrow=oval;endFill=0;sketch=0;sourcePerimeterSpacing=0;targetPerimeterSpacing=0;endSize=10;exitX=1;exitY=0.75;exitDx=0;exitDy=0;edgeStyle=orthogonalEdgeStyle;" parent="1" source="Gp71nWd18dND1Q83QWXw-24" edge="1">
          <mxGeometry relative="1" as="geometry">
            <mxPoint x="-190" y="535" as="sourcePoint" />
            <mxPoint x="-190" y="620" as="targetPoint" />
          </mxGeometry>
        </mxCell>
        <mxCell id="eakKJGeporBGRb9YwunK-11" value="" style="rounded=0;orthogonalLoop=1;jettySize=auto;html=1;endArrow=halfCircle;endFill=0;endSize=6;strokeWidth=1;sketch=0;fontSize=12;curved=1;exitX=0;exitY=0.25;exitDx=0;exitDy=0;" parent="1" source="Gp71nWd18dND1Q83QWXw-3" target="eakKJGeporBGRb9YwunK-15" edge="1">
          <mxGeometry relative="1" as="geometry">
            <mxPoint x="-265" y="715" as="sourcePoint" />
          </mxGeometry>
        </mxCell>
        <mxCell id="eakKJGeporBGRb9YwunK-17" value="instruction" style="edgeLabel;html=1;align=center;verticalAlign=top;resizable=0;points=[];spacing=0;spacingTop=4;spacingRight=1;" parent="eakKJGeporBGRb9YwunK-11" vertex="1" connectable="0">
          <mxGeometry x="0.1697" relative="1" as="geometry">
            <mxPoint x="-19" as="offset" />
          </mxGeometry>
        </mxCell>
        <mxCell id="eakKJGeporBGRb9YwunK-12" value="" style="ellipse;whiteSpace=wrap;html=1;align=center;aspect=fixed;fillColor=none;strokeColor=none;resizable=0;perimeter=centerPerimeter;rotatable=0;allowArrows=0;points=[];outlineConnect=1;" parent="1" vertex="1">
          <mxGeometry x="-465" y="735" width="10" height="10" as="geometry" />
        </mxCell>
        <mxCell id="eakKJGeporBGRb9YwunK-14" value="" style="rounded=0;orthogonalLoop=1;jettySize=auto;html=1;endArrow=oval;endFill=0;sketch=0;sourcePerimeterSpacing=0;targetPerimeterSpacing=0;endSize=10;exitX=0.5;exitY=1;exitDx=0;exitDy=0;edgeStyle=orthogonalEdgeStyle;" parent="1" source="Gp71nWd18dND1Q83QWXw-24" target="eakKJGeporBGRb9YwunK-15" edge="1">
          <mxGeometry relative="1" as="geometry">
            <mxPoint x="-150" y="585" as="sourcePoint" />
            <Array as="points">
              <mxPoint x="-320" y="510" />
              <mxPoint x="-460" y="510" />
              <mxPoint x="-460" y="740" />
            </Array>
          </mxGeometry>
        </mxCell>
        <mxCell id="eakKJGeporBGRb9YwunK-15" value="" style="ellipse;whiteSpace=wrap;html=1;align=center;aspect=fixed;fillColor=none;strokeColor=none;resizable=0;perimeter=centerPerimeter;rotatable=0;allowArrows=0;points=[];outlineConnect=1;" parent="1" vertex="1">
          <mxGeometry x="-450" y="735" width="10" height="10" as="geometry" />
        </mxCell>
        <mxCell id="eakKJGeporBGRb9YwunK-21" value="" style="ellipse;whiteSpace=wrap;html=1;align=center;aspect=fixed;fillColor=none;strokeColor=none;resizable=0;perimeter=centerPerimeter;rotatable=0;allowArrows=0;points=[];outlineConnect=1;" parent="1" vertex="1">
          <mxGeometry x="-120" y="720" width="10" height="10" as="geometry" />
        </mxCell>
        <mxCell id="eakKJGeporBGRb9YwunK-22" value="" style="rounded=0;orthogonalLoop=1;jettySize=auto;html=1;endArrow=halfCircle;endFill=0;endSize=6;strokeWidth=1;sketch=0;exitX=0;exitY=0.75;exitDx=0;exitDy=0;" parent="1" source="Gp71nWd18dND1Q83QWXw-9" target="eakKJGeporBGRb9YwunK-24" edge="1">
          <mxGeometry relative="1" as="geometry">
            <mxPoint x="-60" y="695" as="sourcePoint" />
          </mxGeometry>
        </mxCell>
        <mxCell id="eakKJGeporBGRb9YwunK-26" value="word" style="edgeLabel;html=1;align=center;verticalAlign=top;resizable=0;points=[];spacing=4;" parent="eakKJGeporBGRb9YwunK-22" vertex="1" connectable="0">
          <mxGeometry x="0.2892" y="-1" relative="1" as="geometry">
            <mxPoint x="-23" y="1" as="offset" />
          </mxGeometry>
        </mxCell>
        <mxCell id="eakKJGeporBGRb9YwunK-23" value="" style="rounded=0;orthogonalLoop=1;jettySize=auto;html=1;endArrow=oval;endFill=0;sketch=0;sourcePerimeterSpacing=0;targetPerimeterSpacing=0;endSize=10;exitX=1;exitY=0.75;exitDx=0;exitDy=0;" parent="1" source="Gp71nWd18dND1Q83QWXw-5" target="eakKJGeporBGRb9YwunK-24" edge="1">
          <mxGeometry relative="1" as="geometry">
            <mxPoint x="-190" y="680" as="sourcePoint" />
          </mxGeometry>
        </mxCell>
        <mxCell id="eakKJGeporBGRb9YwunK-24" value="" style="ellipse;whiteSpace=wrap;html=1;align=center;aspect=fixed;fillColor=none;strokeColor=none;resizable=0;perimeter=centerPerimeter;rotatable=0;allowArrows=0;points=[];outlineConnect=1;" parent="1" vertex="1">
          <mxGeometry x="-110" y="655" width="10" height="10" as="geometry" />
        </mxCell>
        <mxCell id="eakKJGeporBGRb9YwunK-30" value="" style="rounded=0;orthogonalLoop=1;jettySize=auto;html=1;endArrow=halfCircle;endFill=0;endSize=6;strokeWidth=1;sketch=0;exitX=0.75;exitY=1;exitDx=0;exitDy=0;" parent="1" source="Gp71nWd18dND1Q83QWXw-13" target="eakKJGeporBGRb9YwunK-32" edge="1">
          <mxGeometry relative="1" as="geometry">
            <mxPoint x="50" y="565" as="sourcePoint" />
          </mxGeometry>
        </mxCell>
        <mxCell id="eakKJGeporBGRb9YwunK-33" value="word" style="edgeLabel;html=1;align=center;verticalAlign=bottom;resizable=0;points=[];spacing=10;labelBackgroundColor=#E6E6E6;" parent="eakKJGeporBGRb9YwunK-30" vertex="1" connectable="0">
          <mxGeometry x="0.1048" relative="1" as="geometry">
            <mxPoint y="18" as="offset" />
          </mxGeometry>
        </mxCell>
        <mxCell id="eakKJGeporBGRb9YwunK-31" value="" style="rounded=0;orthogonalLoop=1;jettySize=auto;html=1;endArrow=oval;endFill=0;sketch=0;sourcePerimeterSpacing=0;targetPerimeterSpacing=0;endSize=10;exitX=0.75;exitY=0;exitDx=0;exitDy=0;" parent="1" source="Gp71nWd18dND1Q83QWXw-9" target="eakKJGeporBGRb9YwunK-32" edge="1">
          <mxGeometry relative="1" as="geometry">
            <mxPoint x="10" y="565" as="sourcePoint" />
          </mxGeometry>
        </mxCell>
        <mxCell id="eakKJGeporBGRb9YwunK-32" value="" style="ellipse;whiteSpace=wrap;html=1;align=center;aspect=fixed;fillColor=default;strokeColor=default;resizable=0;perimeter=centerPerimeter;rotatable=0;allowArrows=0;points=[];outlineConnect=1;" parent="1" vertex="1">
          <mxGeometry x="75" y="555" width="10" height="10" as="geometry" />
        </mxCell>
        <mxCell id="eakKJGeporBGRb9YwunK-34" value="" style="rounded=0;orthogonalLoop=1;jettySize=auto;html=1;endArrow=halfCircle;endFill=0;endSize=6;strokeWidth=1;sketch=0;exitX=0.75;exitY=1;exitDx=0;exitDy=0;" parent="1" source="Gp71nWd18dND1Q83QWXw-9" target="eakKJGeporBGRb9YwunK-36" edge="1">
          <mxGeometry relative="1" as="geometry">
            <mxPoint y="665" as="sourcePoint" />
          </mxGeometry>
        </mxCell>
        <mxCell id="eakKJGeporBGRb9YwunK-37" value="operation" style="edgeLabel;html=1;align=center;verticalAlign=bottom;resizable=0;points=[];spacing=10;labelBackgroundColor=#E6E6E6;" parent="eakKJGeporBGRb9YwunK-34" vertex="1" connectable="0">
          <mxGeometry x="0.0739" y="-1" relative="1" as="geometry">
            <mxPoint x="1" y="16" as="offset" />
          </mxGeometry>
        </mxCell>
        <mxCell id="eakKJGeporBGRb9YwunK-35" value="" style="rounded=0;orthogonalLoop=1;jettySize=auto;html=1;endArrow=oval;endFill=0;sketch=0;sourcePerimeterSpacing=0;targetPerimeterSpacing=0;endSize=10;exitX=0.75;exitY=0;exitDx=0;exitDy=0;" parent="1" source="Gp71nWd18dND1Q83QWXw-11" target="eakKJGeporBGRb9YwunK-36" edge="1">
          <mxGeometry relative="1" as="geometry">
            <mxPoint x="-40" y="665" as="sourcePoint" />
          </mxGeometry>
        </mxCell>
        <mxCell id="eakKJGeporBGRb9YwunK-36" value="" style="ellipse;whiteSpace=wrap;html=1;align=center;aspect=fixed;fillColor=default;strokeColor=default;resizable=0;perimeter=centerPerimeter;rotatable=0;allowArrows=0;points=[];outlineConnect=1;" parent="1" vertex="1">
          <mxGeometry x="75" y="710" width="10" height="10" as="geometry" />
        </mxCell>
        <mxCell id="eakKJGeporBGRb9YwunK-45" value="" style="ellipse;whiteSpace=wrap;html=1;align=center;aspect=fixed;fillColor=none;strokeColor=none;resizable=0;perimeter=centerPerimeter;rotatable=0;allowArrows=0;points=[];outlineConnect=1;" parent="1" vertex="1">
          <mxGeometry x="-360" y="540" width="10" height="10" as="geometry" />
        </mxCell>
        <mxCell id="eakKJGeporBGRb9YwunK-46" value="" style="rounded=0;orthogonalLoop=1;jettySize=auto;html=1;endArrow=halfCircle;endFill=0;endSize=6;strokeWidth=1;sketch=0;exitX=0;exitY=0.75;exitDx=0;exitDy=0;" parent="1" source="Gp71nWd18dND1Q83QWXw-24" target="eakKJGeporBGRb9YwunK-48" edge="1">
          <mxGeometry relative="1" as="geometry">
            <mxPoint x="-330" y="545" as="sourcePoint" />
          </mxGeometry>
        </mxCell>
        <mxCell id="eakKJGeporBGRb9YwunK-53" value="ISA" style="edgeLabel;html=1;align=center;verticalAlign=top;resizable=0;points=[];spacing=4;" parent="eakKJGeporBGRb9YwunK-46" vertex="1" connectable="0">
          <mxGeometry x="-0.1622" relative="1" as="geometry">
            <mxPoint x="-20" as="offset" />
          </mxGeometry>
        </mxCell>
        <mxCell id="eakKJGeporBGRb9YwunK-47" value="" style="rounded=0;orthogonalLoop=1;jettySize=auto;html=1;endArrow=oval;endFill=0;sketch=0;sourcePerimeterSpacing=0;targetPerimeterSpacing=0;endSize=10;exitX=0.25;exitY=1;exitDx=0;exitDy=0;edgeStyle=orthogonalEdgeStyle;" parent="1" source="Gp71nWd18dND1Q83QWXw-22" target="eakKJGeporBGRb9YwunK-48" edge="1">
          <mxGeometry relative="1" as="geometry">
            <mxPoint x="-500" y="430" as="sourcePoint" />
            <Array as="points">
              <mxPoint x="-180" y="1010" />
              <mxPoint x="-520" y="1010" />
              <mxPoint x="-520" y="460" />
            </Array>
          </mxGeometry>
        </mxCell>
        <mxCell id="eakKJGeporBGRb9YwunK-48" value="" style="ellipse;whiteSpace=wrap;html=1;align=center;aspect=fixed;fillColor=none;strokeColor=none;resizable=0;perimeter=centerPerimeter;rotatable=0;allowArrows=0;points=[];outlineConnect=1;" parent="1" vertex="1">
          <mxGeometry x="-440" y="455" width="10" height="10" as="geometry" />
        </mxCell>
        <mxCell id="eakKJGeporBGRb9YwunK-49" value="" style="rounded=0;orthogonalLoop=1;jettySize=auto;html=1;endArrow=halfCircle;endFill=0;endSize=6;strokeWidth=1;sketch=0;exitX=0;exitY=0.25;exitDx=0;exitDy=0;" parent="1" source="Gp71nWd18dND1Q83QWXw-24" target="eakKJGeporBGRb9YwunK-51" edge="1">
          <mxGeometry relative="1" as="geometry">
            <mxPoint x="-370" y="525" as="sourcePoint" />
          </mxGeometry>
        </mxCell>
        <mxCell id="eakKJGeporBGRb9YwunK-52" value="program" style="edgeLabel;html=1;align=center;verticalAlign=top;resizable=0;points=[];spacing=4;" parent="eakKJGeporBGRb9YwunK-49" vertex="1" connectable="0">
          <mxGeometry x="0.0742" y="-1" relative="1" as="geometry">
            <mxPoint x="-16" y="1" as="offset" />
          </mxGeometry>
        </mxCell>
        <mxCell id="eakKJGeporBGRb9YwunK-50" value="" style="rounded=0;orthogonalLoop=1;jettySize=auto;html=1;endArrow=oval;endFill=0;sketch=0;sourcePerimeterSpacing=0;targetPerimeterSpacing=0;endSize=10;exitX=0.75;exitY=1;exitDx=0;exitDy=0;edgeStyle=orthogonalEdgeStyle;" parent="1" source="Gp71nWd18dND1Q83QWXw-22" target="eakKJGeporBGRb9YwunK-51" edge="1">
          <mxGeometry relative="1" as="geometry">
            <mxPoint x="-410" y="525" as="sourcePoint" />
            <Array as="points">
              <mxPoint x="-100" y="1030" />
              <mxPoint x="-540" y="1030" />
              <mxPoint x="-540" y="420" />
            </Array>
          </mxGeometry>
        </mxCell>
        <mxCell id="eakKJGeporBGRb9YwunK-51" value="" style="ellipse;whiteSpace=wrap;html=1;align=center;aspect=fixed;fillColor=none;strokeColor=none;resizable=0;perimeter=centerPerimeter;rotatable=0;allowArrows=0;points=[];outlineConnect=1;" parent="1" vertex="1">
          <mxGeometry x="-440" y="415" width="10" height="10" as="geometry" />
        </mxCell>
        <mxCell id="eakKJGeporBGRb9YwunK-57" value="" style="endArrow=open;html=1;rounded=1;exitX=0.75;exitY=0;exitDx=0;exitDy=0;entryX=-0.002;entryY=0.938;entryDx=0;entryDy=0;dashed=1;edgeStyle=orthogonalEdgeStyle;endFill=0;entryPerimeter=0;curved=0;" parent="1" source="Gp71nWd18dND1Q83QWXw-22" target="Gp71nWd18dND1Q83QWXw-7" edge="1">
          <mxGeometry width="50" height="50" relative="1" as="geometry">
            <mxPoint x="280" y="830" as="sourcePoint" />
            <mxPoint x="290" y="890" as="targetPoint" />
          </mxGeometry>
        </mxCell>
        <mxCell id="eakKJGeporBGRb9YwunK-59" value="" style="endArrow=open;html=1;rounded=1;exitX=0.25;exitY=0;exitDx=0;exitDy=0;entryX=0.5;entryY=1;entryDx=0;entryDy=0;dashed=1;edgeStyle=orthogonalEdgeStyle;endFill=0;curved=0;" parent="1" source="Gp71nWd18dND1Q83QWXw-22" target="Gp71nWd18dND1Q83QWXw-1" edge="1">
          <mxGeometry width="50" height="50" relative="1" as="geometry">
            <mxPoint x="-90" y="920" as="sourcePoint" />
            <mxPoint x="-60" y="850" as="targetPoint" />
          </mxGeometry>
        </mxCell>
        <mxCell id="eakKJGeporBGRb9YwunK-60" value="" style="endArrow=open;html=1;rounded=1;exitX=0;exitY=0.75;exitDx=0;exitDy=0;entryX=0.998;entryY=0.916;entryDx=0;entryDy=0;dashed=1;edgeStyle=orthogonalEdgeStyle;endFill=0;entryPerimeter=0;curved=0;" parent="1" source="Gp71nWd18dND1Q83QWXw-11" target="Gp71nWd18dND1Q83QWXw-1" edge="1">
          <mxGeometry width="50" height="50" relative="1" as="geometry">
            <mxPoint x="-170" y="920" as="sourcePoint" />
            <mxPoint x="-310" y="830" as="targetPoint" />
            <Array as="points">
              <mxPoint x="-180" y="820" />
              <mxPoint x="-180" y="796" />
            </Array>
          </mxGeometry>
        </mxCell>
        <mxCell id="eakKJGeporBGRb9YwunK-64" value="" style="endArrow=open;html=1;rounded=1;exitX=0.5;exitY=0;exitDx=0;exitDy=0;entryX=1;entryY=0.25;entryDx=0;entryDy=0;dashed=1;edgeStyle=orthogonalEdgeStyle;endFill=0;curved=0;" parent="1" source="Gp71nWd18dND1Q83QWXw-22" target="Gp71nWd18dND1Q83QWXw-24" edge="1">
          <mxGeometry width="50" height="50" relative="1" as="geometry">
            <mxPoint x="-61" y="729" as="sourcePoint" />
            <mxPoint x="-209" y="728" as="targetPoint" />
            <Array as="points">
              <mxPoint x="-140" y="420" />
            </Array>
          </mxGeometry>
        </mxCell>
        <mxCell id="pKsOjxFZ4Rrx8PbKON6V-1" value="" style="rounded=0;orthogonalLoop=1;jettySize=auto;html=1;endArrow=halfCircle;endFill=0;endSize=6;strokeWidth=1;sketch=0;exitX=1;exitY=0.5;exitDx=0;exitDy=0;" parent="1" source="Gp71nWd18dND1Q83QWXw-13" target="pKsOjxFZ4Rrx8PbKON6V-3" edge="1">
          <mxGeometry relative="1" as="geometry">
            <mxPoint x="190" y="430" as="sourcePoint" />
          </mxGeometry>
        </mxCell>
        <mxCell id="pKsOjxFZ4Rrx8PbKON6V-4" value="setup" style="edgeLabel;html=1;align=center;verticalAlign=top;resizable=0;points=[];spacing=4;" parent="pKsOjxFZ4Rrx8PbKON6V-1" vertex="1" connectable="0">
          <mxGeometry x="0.5527" relative="1" as="geometry">
            <mxPoint x="15" as="offset" />
          </mxGeometry>
        </mxCell>
        <mxCell id="pKsOjxFZ4Rrx8PbKON6V-2" value="" style="rounded=0;orthogonalLoop=1;jettySize=auto;html=1;endArrow=oval;endFill=0;sketch=0;sourcePerimeterSpacing=0;targetPerimeterSpacing=0;endSize=10;edgeStyle=orthogonalEdgeStyle;exitX=1;exitY=0.5;exitDx=0;exitDy=0;" parent="1" source="Gp71nWd18dND1Q83QWXw-22" target="pKsOjxFZ4Rrx8PbKON6V-3" edge="1">
          <mxGeometry relative="1" as="geometry">
            <mxPoint x="20" y="1020" as="sourcePoint" />
            <Array as="points">
              <mxPoint x="220" y="950" />
              <mxPoint x="220" y="480" />
            </Array>
          </mxGeometry>
        </mxCell>
        <mxCell id="pKsOjxFZ4Rrx8PbKON6V-3" value="" style="ellipse;whiteSpace=wrap;html=1;align=center;aspect=fixed;fillColor=none;strokeColor=none;resizable=0;perimeter=centerPerimeter;rotatable=0;allowArrows=0;points=[];outlineConnect=1;" parent="1" vertex="1">
          <mxGeometry x="190" y="475" width="10" height="10" as="geometry" />
        </mxCell>
        <mxCell id="pKsOjxFZ4Rrx8PbKON6V-5" value="" style="rounded=0;orthogonalLoop=1;jettySize=auto;html=1;endArrow=halfCircle;endFill=0;endSize=6;strokeWidth=1;sketch=0;exitX=0;exitY=0.75;exitDx=0;exitDy=0;" parent="1" source="Gp71nWd18dND1Q83QWXw-5" target="pKsOjxFZ4Rrx8PbKON6V-7" edge="1">
          <mxGeometry relative="1" as="geometry">
            <mxPoint x="-300" y="745" as="sourcePoint" />
          </mxGeometry>
        </mxCell>
        <mxCell id="pKsOjxFZ4Rrx8PbKON6V-8" value="setup" style="edgeLabel;html=1;align=center;verticalAlign=top;resizable=0;points=[];spacing=4;" parent="pKsOjxFZ4Rrx8PbKON6V-5" vertex="1" connectable="0">
          <mxGeometry x="0.2758" relative="1" as="geometry">
            <mxPoint x="-16" as="offset" />
          </mxGeometry>
        </mxCell>
        <mxCell id="pKsOjxFZ4Rrx8PbKON6V-7" value="" style="ellipse;whiteSpace=wrap;html=1;align=center;aspect=fixed;fillColor=none;strokeColor=none;resizable=0;perimeter=centerPerimeter;rotatable=0;allowArrows=0;points=[];outlineConnect=1;" parent="1" vertex="1">
          <mxGeometry x="-450" y="655" width="10" height="10" as="geometry" />
        </mxCell>
        <mxCell id="pKsOjxFZ4Rrx8PbKON6V-10" value="" style="endArrow=open;html=1;rounded=0;dashed=1;edgeStyle=orthogonalEdgeStyle;endFill=0;entryX=0.5;entryY=1;entryDx=0;entryDy=0;exitX=0.5;exitY=0;exitDx=0;exitDy=0;" parent="1" source="Gp71nWd18dND1Q83QWXw-9" target="Gp71nWd18dND1Q83QWXw-13" edge="1">
          <mxGeometry width="50" height="50" relative="1" as="geometry">
            <mxPoint x="160" y="650" as="sourcePoint" />
            <mxPoint x="130" y="510" as="targetPoint" />
            <Array as="points">
              <mxPoint x="40" y="570" />
              <mxPoint x="40" y="570" />
            </Array>
          </mxGeometry>
        </mxCell>
        <mxCell id="pKsOjxFZ4Rrx8PbKON6V-11" value="" style="endArrow=open;html=1;rounded=0;dashed=1;edgeStyle=orthogonalEdgeStyle;endFill=0;entryX=0.5;entryY=1;entryDx=0;entryDy=0;exitX=0.5;exitY=0;exitDx=0;exitDy=0;" parent="1" source="Gp71nWd18dND1Q83QWXw-11" target="Gp71nWd18dND1Q83QWXw-9" edge="1">
          <mxGeometry width="50" height="50" relative="1" as="geometry">
            <mxPoint x="200" y="830" as="sourcePoint" />
            <mxPoint x="200" y="740" as="targetPoint" />
            <Array as="points">
              <mxPoint x="40" y="720" />
              <mxPoint x="40" y="720" />
            </Array>
          </mxGeometry>
        </mxCell>
        <mxCell id="GRUeSjwJlt0s4vSgQ8qf-1" value="" style="rounded=0;orthogonalLoop=1;jettySize=auto;html=1;endArrow=halfCircle;endFill=0;endSize=6;strokeWidth=1;sketch=0;exitX=0.25;exitY=0;exitDx=0;exitDy=0;" parent="1" source="Gp71nWd18dND1Q83QWXw-11" target="GRUeSjwJlt0s4vSgQ8qf-3" edge="1">
          <mxGeometry relative="1" as="geometry">
            <mxPoint x="-10" y="735" as="sourcePoint" />
          </mxGeometry>
        </mxCell>
        <mxCell id="GRUeSjwJlt0s4vSgQ8qf-4" value="env" style="edgeLabel;html=1;align=center;verticalAlign=top;resizable=0;points=[];spacing=5;labelBackgroundColor=#E6E6E6;" parent="GRUeSjwJlt0s4vSgQ8qf-1" vertex="1" connectable="0">
          <mxGeometry x="0.0692" relative="1" as="geometry">
            <mxPoint y="-16" as="offset" />
          </mxGeometry>
        </mxCell>
        <mxCell id="GRUeSjwJlt0s4vSgQ8qf-2" value="" style="rounded=0;orthogonalLoop=1;jettySize=auto;html=1;endArrow=oval;endFill=0;sketch=0;sourcePerimeterSpacing=0;targetPerimeterSpacing=0;endSize=10;exitX=0.25;exitY=1;exitDx=0;exitDy=0;" parent="1" source="Gp71nWd18dND1Q83QWXw-9" target="GRUeSjwJlt0s4vSgQ8qf-3" edge="1">
          <mxGeometry relative="1" as="geometry">
            <mxPoint x="-50" y="735" as="sourcePoint" />
          </mxGeometry>
        </mxCell>
        <mxCell id="GRUeSjwJlt0s4vSgQ8qf-3" value="" style="ellipse;whiteSpace=wrap;html=1;align=center;aspect=fixed;fillColor=default;strokeColor=default;resizable=0;perimeter=centerPerimeter;rotatable=0;allowArrows=0;points=[];outlineConnect=1;" parent="1" vertex="1">
          <mxGeometry x="-5" y="720" width="10" height="10" as="geometry" />
        </mxCell>
        <mxCell id="GRUeSjwJlt0s4vSgQ8qf-5" value="" style="rounded=0;orthogonalLoop=1;jettySize=auto;html=1;endArrow=halfCircle;endFill=0;endSize=6;strokeWidth=1;sketch=0;exitX=1;exitY=0.5;exitDx=0;exitDy=0;" parent="1" source="Gp71nWd18dND1Q83QWXw-11" target="GRUeSjwJlt0s4vSgQ8qf-7" edge="1">
          <mxGeometry relative="1" as="geometry">
            <mxPoint x="20" y="745" as="sourcePoint" />
          </mxGeometry>
        </mxCell>
        <mxCell id="GRUeSjwJlt0s4vSgQ8qf-8" value="env" style="edgeLabel;html=1;align=center;verticalAlign=top;resizable=0;points=[];spacing=4;labelBackgroundColor=#E6E6E6;" parent="GRUeSjwJlt0s4vSgQ8qf-5" vertex="1" connectable="0">
          <mxGeometry x="-0.158" y="-1" relative="1" as="geometry">
            <mxPoint x="14" y="-1" as="offset" />
          </mxGeometry>
        </mxCell>
        <mxCell id="GRUeSjwJlt0s4vSgQ8qf-6" value="" style="rounded=0;orthogonalLoop=1;jettySize=auto;html=1;endArrow=oval;endFill=0;sketch=0;sourcePerimeterSpacing=0;targetPerimeterSpacing=0;endSize=10;exitX=1;exitY=0.75;exitDx=0;exitDy=0;edgeStyle=orthogonalEdgeStyle;" parent="1" source="Gp71nWd18dND1Q83QWXw-13" target="GRUeSjwJlt0s4vSgQ8qf-7" edge="1">
          <mxGeometry relative="1" as="geometry">
            <mxPoint x="-90" y="720" as="sourcePoint" />
          </mxGeometry>
        </mxCell>
        <mxCell id="GRUeSjwJlt0s4vSgQ8qf-7" value="" style="ellipse;whiteSpace=wrap;html=1;align=center;aspect=fixed;fillColor=default;strokeColor=default;resizable=0;perimeter=centerPerimeter;rotatable=0;allowArrows=0;points=[];outlineConnect=1;" parent="1" vertex="1">
          <mxGeometry x="140" y="795" width="10" height="10" as="geometry" />
        </mxCell>
      </root>
    </mxGraphModel>
  </diagram>
</mxfile>
